<svg width="30" height="31" viewBox="0 0 30 31" fill="none" xmlns="http://www.w3.org/2000/svg">
<path d="M17.0637 13.8338C16.5167 13.2868 15.7747 12.9795 15.0011 12.9795C14.2274 12.9795 13.4855 13.2868 12.9384 13.8338C12.3914 14.3809 12.0841 15.1228 12.0841 15.8965C12.0841 16.6701 12.3914 17.4121 12.9384 17.9591C13.4855 18.5062 14.2274 18.8135 15.0011 18.8135C15.7747 18.8135 16.5167 18.5062 17.0637 17.9591C17.6108 17.4121 17.9181 16.6701 17.9181 15.8965C17.9181 15.1228 17.6108 14.3809 17.0637 13.8338Z" fill="white"/>
<path fill-rule="evenodd" clip-rule="evenodd" d="M15.0011 8.72367H14.2158V8.72148C12.585 8.72258 12.2722 8.73352 11.465 8.7707C10.6119 8.81008 10.1492 8.95227 9.84078 9.07258C9.43172 9.23117 9.14078 9.42039 8.83453 9.72664C8.52828 10.0329 8.33797 10.3249 8.17937 10.7329C8.05906 11.0413 7.91687 11.5051 7.8775 12.3582C7.83594 13.2802 7.82719 13.5559 7.82719 15.8921C7.82719 18.2295 7.83594 18.5062 7.8775 19.4282C7.91578 20.2813 8.05906 20.7451 8.17828 21.0524C8.31907 21.4327 8.54332 21.7765 8.83453 22.0587C9.11686 22.3491 9.4607 22.5726 9.84078 22.7127C10.1492 22.833 10.6119 22.9752 11.465 23.0146C12.387 23.0562 12.6648 23.066 15.0011 23.066C17.3373 23.066 17.6141 23.0562 18.5361 23.0146C19.3903 22.9752 19.8541 22.833 20.1603 22.7127C20.5694 22.5541 20.8603 22.3649 21.1666 22.0587C21.4575 21.777 21.6814 21.4334 21.8217 21.0535C21.9409 20.7451 22.0842 20.2824 22.1225 19.4293C22.1652 18.5073 22.1739 18.2295 22.1739 15.8943C22.1739 13.5591 22.1652 13.2824 22.1225 12.3604C22.0842 11.5073 21.942 11.0435 21.8217 10.7362C21.6631 10.3271 21.4739 10.0362 21.1677 9.72992C20.8614 9.42367 20.5694 9.23336 20.1614 9.07477C19.853 8.95555 19.3892 8.81227 18.5361 8.77398C17.6141 8.73133 17.3373 8.72367 15.0011 8.72367ZM19.2696 10.2561C19.397 10.2033 19.5335 10.1762 19.6714 10.1762C19.9499 10.1762 20.217 10.2868 20.4139 10.4837C20.6108 10.6806 20.7214 10.9477 20.7214 11.2262C20.7214 11.5047 20.6108 11.7717 20.4139 11.9686C20.217 12.1655 19.9499 12.2762 19.6714 12.2762C19.5335 12.2762 19.397 12.249 19.2696 12.1962C19.1422 12.1435 19.0264 12.0661 18.9289 11.9686C18.8314 11.8711 18.7541 11.7554 18.7013 11.628C18.6486 11.5006 18.6214 11.3641 18.6214 11.2262C18.6214 11.0883 18.6486 10.9517 18.7013 10.8244C18.7541 10.697 18.8314 10.5812 18.9289 10.4837C19.0264 10.3862 19.1422 10.3089 19.2696 10.2561ZM13.2598 11.7251C13.8132 11.5034 14.4051 11.3941 15.0011 11.4034C16.1807 11.4218 17.3059 11.9033 18.1336 12.744C18.9613 13.5847 19.4252 14.7172 19.4252 15.897C19.4252 17.0768 18.9613 18.2093 18.1336 19.05C17.3059 19.8908 16.1807 20.3723 15.0011 20.3907C14.4051 20.4 13.8132 20.2906 13.2598 20.069C12.7065 19.8473 12.2028 19.5178 11.778 19.0996C11.3532 18.6814 11.0159 18.1829 10.7856 17.6331C10.5553 17.0833 10.4368 16.4931 10.4368 15.897C10.4368 15.3009 10.5553 14.7108 10.7856 14.161C11.0159 13.6112 11.3532 13.1126 11.778 12.6944C12.2028 12.2762 12.7065 11.9467 13.2598 11.7251Z" fill="white"/>
<path fill-rule="evenodd" clip-rule="evenodd" d="M15 30.8965C23.2843 30.8965 30 24.1808 30 15.8965C30 7.61221 23.2843 0.896484 15 0.896484C6.71573 0.896484 0 7.61221 0 15.8965C0 24.1808 6.71573 30.8965 15 30.8965ZM11.3939 7.19898C12.3269 7.15742 12.6255 7.14648 15 7.14648H14.9978C17.3756 7.14648 17.672 7.15742 18.6061 7.19898C19.5369 7.24164 20.1734 7.3893 20.7312 7.60586C21.3153 7.82531 21.8443 8.16988 22.2811 8.61539C22.7262 9.05254 23.0707 9.58142 23.2906 10.1652C23.5061 10.7209 23.6538 11.3574 23.6975 12.2882C23.7391 13.2223 23.75 13.5198 23.75 15.8965C23.75 18.2732 23.7391 18.5707 23.6975 19.5037C23.6538 20.4355 23.5061 21.071 23.2906 21.6277C23.0664 22.203 22.7678 22.6909 22.2811 23.1776C21.8445 23.6228 21.3159 23.9674 20.7323 24.1871C20.1756 24.4037 19.538 24.5502 18.6072 24.594C17.6731 24.6355 17.3767 24.6465 15 24.6465C12.6233 24.6465 12.3258 24.6355 11.3917 24.594C10.4598 24.5513 9.82547 24.4037 9.26766 24.1871C8.69234 23.964 8.20453 23.6643 7.71891 23.1776C7.23219 22.6909 6.93359 22.203 6.70937 21.6277C6.49281 21.071 6.34625 20.4355 6.3025 19.5037C6.26094 18.5707 6.25 18.2732 6.25 15.8976C6.25 13.5198 6.26094 13.2223 6.3025 12.2871C6.34516 11.3574 6.49281 10.7209 6.70937 10.1652C6.92934 9.58143 7.27383 9.05256 7.71891 8.61539C8.15585 8.17004 8.68479 7.82551 9.26875 7.60586C9.82547 7.3893 10.4609 7.24273 11.3939 7.19898Z" fill="white"/>
</svg>
