<svg width="30" height="31" viewBox="0 0 30 31" fill="none" xmlns="http://www.w3.org/2000/svg">
<path d="M15 0.896484C6.71562 0.896484 0 7.61211 0 15.8965C0 24.1809 6.71562 30.8965 15 30.8965C23.2844 30.8965 30 24.1809 30 15.8965C30 7.61211 23.2844 0.896484 15 0.896484ZM20.7687 17.8199C20.7687 17.8199 22.0953 19.1293 22.4219 19.7371C22.4312 19.7496 22.4359 19.7621 22.4391 19.7684C22.5719 19.9918 22.6031 20.1652 22.5375 20.2949C22.4281 20.5105 22.0531 20.6168 21.925 20.6262H19.5812C19.4187 20.6262 19.0781 20.584 18.6656 20.2996C18.3484 20.0777 18.0359 19.7137 17.7312 19.359C17.2766 18.8309 16.8828 18.3746 16.4859 18.3746C16.4355 18.3745 16.3854 18.3824 16.3375 18.398C16.0375 18.4949 15.6531 18.923 15.6531 20.0637C15.6531 20.4199 15.3719 20.6246 15.1734 20.6246H14.1C13.7344 20.6246 11.8297 20.4965 10.1422 18.7168C8.07656 16.5371 6.21719 12.1652 6.20156 12.1246C6.08437 11.8418 6.32656 11.6902 6.59062 11.6902H8.95781C9.27344 11.6902 9.37656 11.8824 9.44844 12.0527C9.53281 12.2512 9.84219 13.0402 10.35 13.9277C11.1734 15.3746 11.6781 15.9621 12.0828 15.9621C12.1587 15.9612 12.2332 15.9419 12.3 15.9059C12.8281 15.6121 12.7297 13.7293 12.7062 13.3387C12.7062 13.2652 12.7047 12.4965 12.4344 12.1277C12.2406 11.8605 11.9109 11.759 11.7109 11.7215C11.7919 11.6098 11.8985 11.5192 12.0219 11.4574C12.3844 11.2762 13.0375 11.2496 13.6859 11.2496H14.0469C14.75 11.259 14.9313 11.3043 15.1859 11.3684C15.7016 11.4918 15.7125 11.8246 15.6672 12.9637C15.6531 13.2871 15.6391 13.6527 15.6391 14.084C15.6391 14.1777 15.6344 14.2777 15.6344 14.384C15.6187 14.9637 15.6 15.6215 16.0094 15.8918C16.0628 15.9253 16.1245 15.9431 16.1875 15.9434C16.3297 15.9434 16.7578 15.9434 17.9172 13.9543C18.2747 13.3141 18.5855 12.6488 18.8469 11.9637C18.8703 11.923 18.9391 11.798 19.0203 11.7496C19.0803 11.719 19.1468 11.7035 19.2141 11.7043H21.9969C22.3 11.7043 22.5078 11.7496 22.5469 11.8668C22.6156 12.0527 22.5344 12.6199 21.2641 14.3402L20.6969 15.0887C19.5453 16.598 19.5453 16.6746 20.7687 17.8199Z" fill="white"/>
</svg>
