<svg width="30" height="31" viewBox="0 0 30 31" fill="none" xmlns="http://www.w3.org/2000/svg">
<path d="M30 15.9894C30 7.65151 23.2809 0.896484 15 0.896484C6.71344 0.896484 0 7.65151 0 15.9894C0 23.5208 5.48344 29.7655 12.6562 30.8965V20.3531H8.84719V15.9903H12.6562V12.6633C12.6562 8.88158 14.8922 6.7931 18.3197 6.7931C19.9613 6.7931 21.6797 7.08741 21.6797 7.08741V10.8012H19.785C17.925 10.8012 17.3438 11.9662 17.3438 13.1595V15.9894H21.5034L20.835 20.3522H17.3438V30.8955C24.5109 29.7645 30 23.5198 30 15.9885V15.9894Z" fill="white"/>
</svg>
