<svg width="30" height="31" viewBox="0 0 30 31" fill="none" xmlns="http://www.w3.org/2000/svg">
<path d="M17.5047 15.6355L13.9953 13.998C13.6891 13.8559 13.4375 14.0152 13.4375 14.3543V17.4387C13.4375 17.7777 13.6891 17.9371 13.9953 17.7949L17.5031 16.1574C17.8109 16.0137 17.8109 15.7793 17.5047 15.6355ZM15 0.896484C6.71562 0.896484 0 7.61211 0 15.8965C0 24.1809 6.71562 30.8965 15 30.8965C23.2844 30.8965 30 24.1809 30 15.8965C30 7.61211 23.2844 0.896484 15 0.896484ZM15 21.9902C7.32188 21.9902 7.1875 21.298 7.1875 15.8965C7.1875 10.4949 7.32188 9.80273 15 9.80273C22.6781 9.80273 22.8125 10.4949 22.8125 15.8965C22.8125 21.298 22.6781 21.9902 15 21.9902Z" fill="white"/>
</svg>
