<svg width="25" height="18" viewBox="0 0 25 18" fill="none" xmlns="http://www.w3.org/2000/svg">
<path d="M23.2143 0H1.78571C1.31211 0 0.85791 0.163782 0.523023 0.455316C0.188137 0.74685 0 1.14225 0 1.55455V16.4455C0 16.8577 0.188137 17.2531 0.523023 17.5447C0.85791 17.8362 1.31211 18 1.78571 18H23.2143C23.6879 18 24.1421 17.8362 24.477 17.5447C24.8119 17.2531 25 16.8577 25 16.4455V1.55455C25 1.14225 24.8119 0.74685 24.477 0.455316C24.1421 0.163782 23.6879 0 23.2143 0ZM21.25 1.55455L12.5 6.82445L3.75 1.55455H21.25ZM1.78571 16.4455V2.26186L11.9911 8.41009C12.1405 8.50035 12.3181 8.54872 12.5 8.54872C12.6819 8.54872 12.8595 8.50035 13.0089 8.41009L23.2143 2.26186V16.4455H1.78571Z" fill="white"/>
</svg>
