<svg width="22" height="24" viewBox="0 0 22 24" fill="none" xmlns="http://www.w3.org/2000/svg">
<path d="M17.0146 23.5L17.013 23.5C16.8387 23.4994 16.6647 23.4781 16.4938 23.4362L16.4938 23.4362L16.4872 23.4346C12.6086 22.5395 9.02793 20.4395 6.16 17.3674C3.35615 14.2901 1.40629 10.3666 0.552899 6.06877C0.465006 5.59856 0.486997 5.1109 0.616206 4.6539C0.745627 4.19615 0.97697 3.78882 1.28294 3.46876L1.28297 3.46879L1.28742 3.46401L3.83263 0.731033C3.91402 0.645548 4.00711 0.583639 4.10417 0.54567C4.19961 0.508334 4.29898 0.494042 4.39694 0.502238C4.49871 0.515016 4.60003 0.552364 4.69388 0.615183C4.78978 0.67938 4.87635 0.76927 4.94445 0.881778L4.94468 0.88216L8.1261 6.12791C8.19344 6.24412 8.22854 6.38668 8.22089 6.53403C8.21319 6.6824 8.16311 6.81821 8.08545 6.9223C8.08537 6.92241 8.08529 6.92252 8.0852 6.92264L6.48759 9.05289L6.31815 9.27882L6.42417 9.54057C7.0822 11.1653 8.0151 12.6372 9.17435 13.8749C10.3261 15.1554 11.6898 16.1811 13.1935 16.8938L13.492 17.0353L13.7392 16.8162L15.7185 15.0625C15.7186 15.0624 15.7187 15.0623 15.7188 15.0622C15.807 14.9846 15.9069 14.9446 16.004 14.9376C16.0987 14.9308 16.1972 14.9549 16.288 15.0138L21.0869 18.4742L21.0945 18.4797L21.1022 18.4848C21.2013 18.5508 21.2906 18.6443 21.3598 18.7617C21.429 18.8792 21.4753 19.0158 21.4925 19.1614C21.5097 19.3071 21.497 19.4548 21.4561 19.5926L21.9355 19.7349L21.4561 19.5926C21.4157 19.7289 21.3496 19.8493 21.2661 19.9463L18.7866 22.684L18.7857 22.685C18.5475 22.9495 18.2678 23.1554 17.9643 23.2941C17.6611 23.4326 17.3385 23.502 17.0146 23.5ZM4.77374 1.15066L4.43022 0.588422L3.98118 1.07059L1.43687 3.8026C1.17303 4.07795 0.982101 4.42004 0.877596 4.79312C0.772711 5.16755 0.757165 5.56471 0.831957 5.94695L0.832049 5.94741C1.6578 10.1465 3.5571 13.9954 6.30717 17.0266L6.30714 17.0266L6.312 17.0318C9.13577 20.0566 12.6742 22.1366 16.5229 23.0237C16.8962 23.1107 17.2834 23.0928 17.6479 22.9725C18.012 22.8522 18.3377 22.635 18.5985 22.3463C18.5986 22.3463 18.5986 22.3462 18.5987 22.3461L21.0814 19.6048L21.4567 19.1904L21.0032 18.8635L16.3615 15.5178L16.0365 15.2836L15.737 15.5497L13.6115 17.4381C13.6114 17.4382 13.6113 17.4383 13.6112 17.4384C13.5924 17.4549 13.5751 17.4621 13.5621 17.4648C13.5515 17.4669 13.5406 17.4669 13.5291 17.464C11.8443 16.7682 10.3128 15.6651 9.04533 14.2288L9.03839 14.2209L9.03114 14.2134C7.72424 12.8518 6.7049 11.1765 6.05174 9.30938C6.04521 9.27203 6.04609 9.23298 6.05448 9.19593C6.06421 9.15296 6.08263 9.11859 6.10318 9.09445L6.11323 9.08264L6.12254 9.07022L7.84168 6.77584L8.04494 6.50458L7.86821 6.21534L4.77374 1.15066Z" stroke="white"/>
</svg>
