<svg width="90" height="88" viewBox="0 0 90 88" fill="none" xmlns="http://www.w3.org/2000/svg">
<path d="M40.0659 1.99352C35.7531 -1.8792 28.8524 0.164736 27.3429 5.75865C26.2647 9.63137 22.4909 11.998 18.5015 11.3526C12.7869 10.3844 8.04277 15.8707 9.76792 21.3571C10.954 25.1222 9.12099 29.2101 5.45504 30.8237C0.171755 33.0828 -0.906471 40.2903 3.51424 43.9479C6.53326 46.5297 7.18019 50.9403 5.02375 54.2751C1.78909 59.116 4.8081 65.5705 10.5227 66.3236C14.5121 66.8614 17.4233 70.1963 17.3155 74.1766C17.2076 79.9856 23.2457 83.8583 28.529 81.3841C32.0871 79.6629 36.5078 80.9538 38.5564 84.2886C41.5754 89.2371 48.7995 89.2371 51.8185 84.2886C53.8672 80.8462 58.2879 79.6629 61.846 81.3841C67.1293 83.8583 73.2752 79.9856 73.1673 74.1766C73.0595 70.1963 76.0785 66.7539 79.9601 66.3236C85.6747 65.5705 88.6937 59.116 85.4591 54.2751C83.1948 50.9403 83.8417 46.5297 86.9686 43.9479C91.3893 40.1828 90.4189 33.0828 85.0278 30.8237C81.3618 29.2101 79.5288 25.1222 80.7149 21.3571C82.44 15.8707 77.6959 10.3844 71.9813 11.3526C67.9919 11.998 64.2181 9.52379 63.1399 5.75865C61.6304 0.164736 54.7297 -1.8792 50.4169 1.99352C47.5057 4.57532 42.9771 4.57532 40.0659 1.99352Z" fill="#1C80C4"/>
</svg>
