<svg width="579" height="580" viewBox="0 0 579 580" fill="none" xmlns="http://www.w3.org/2000/svg">
<path d="M292.507 2.83942L266.054 22.9352C262.298 25.8069 257.526 26.2566 253.322 24.3459L223.114 10.6231C217.662 8.18735 211.259 9.84428 207.739 14.79L188.464 41.8359C185.784 45.5437 181.268 47.5916 176.698 46.9374L143.904 42.6439C137.91 41.9343 132.23 45.3665 130.42 51.1729L119.844 82.6869C118.406 87.0782 114.637 90.2671 110.012 91.0402L77.1459 96.7504C71.2422 97.7914 66.9248 102.865 66.6904 108.891L65.8757 142.056C65.6968 146.655 63.1569 150.845 58.9567 152.905L29.3723 167.955C24.0398 170.607 21.4197 176.858 22.9381 182.635L31.8368 214.589C33.0881 219.085 31.7955 223.8 28.5014 227.007L4.78554 250.068C0.505127 254.19 -0.228649 260.833 2.89666 266.037L20.8287 293.895C23.3705 297.806 23.4957 302.734 21.2784 306.778L5.40986 335.862C2.51029 341.15 3.68138 347.707 8.28624 351.54L33.6037 372.855C37.1318 375.851 38.6934 380.518 37.8816 385.093L31.2311 417.554C30.0535 423.385 33.148 429.382 38.6056 431.659L69.1612 444.601C73.3716 446.353 76.3818 450.441 76.8358 455.065L79.9891 488.066C80.5458 494.123 85.2781 498.755 91.2721 499.464L124.261 502.812C128.837 503.308 132.846 506.164 134.578 510.52L147.33 541.194C149.652 546.685 155.547 549.932 161.457 548.732L193.879 542.211C198.352 541.273 203.043 542.885 206.072 546.497L227.267 571.941C231.05 576.535 237.659 577.745 242.997 574.935L272.138 559.073C276.186 556.848 281.091 557.039 284.954 559.572L312.775 577.649C317.879 580.866 324.403 580.166 328.69 575.886L351.797 552.166C355.097 548.8 359.742 547.551 364.287 548.839L396.104 557.86C401.903 559.515 408.027 556.894 410.774 551.442L425.87 521.851C427.929 517.801 432.154 515.107 436.755 514.968L469.904 514.193C475.929 514.109 481.013 509.701 482.038 503.705L487.746 471.049C488.557 466.474 491.712 462.785 496.21 461.213L527.679 450.683C533.297 448.837 537.006 443.104 536.126 437.193L532.018 404.314C531.405 399.684 533.483 395.159 537.233 392.446L564.13 373.161C569.019 369.698 570.695 363.251 568.215 357.755L554.654 327.525C552.758 323.322 553.265 318.418 556.103 314.716L576.145 288.336C579.817 283.555 579.602 276.875 575.502 272.268L554.124 247.453C551.089 244 550.173 239.04 551.764 234.813L563.118 203.647C565.238 198.012 562.947 191.728 557.843 188.512L529.517 171.209C525.648 168.835 523.283 164.455 523.462 159.855L525.226 126.728C525.618 120.708 521.55 115.308 515.745 113.811L483.58 105.572C479.029 104.442 475.677 100.976 474.426 96.4797L466.331 64.2394C464.813 58.4624 459.423 54.4407 453.55 54.6888L420.522 56.4218C415.915 56.7191 411.571 54.3265 409.187 50.4218L392.071 21.9603C388.946 16.7561 382.691 14.6068 377.067 16.6116L345.884 27.9464C341.544 29.5248 336.67 28.541 333.3 25.5509L308.488 3.46105C304.047 -0.523663 297.244 -0.788316 292.507 2.83942Z" fill="#92CEE9"/>
</svg>
