<svg width="48" height="66" viewBox="0 0 48 66" fill="none" xmlns="http://www.w3.org/2000/svg">
<path d="M22.4306 1.17431L1.12364 30.2911C0.52498 31.1086 0.674936 32.1783 1.48791 32.9189L11.8742 42.7219C12.5509 43.3786 12.7683 44.2815 12.4048 45.0514L4.19527 62.5475C3.21396 64.668 6.41553 66.6377 8.4816 65.2166L35.1523 46.739C36.0132 46.1469 36.2712 45.1198 35.7872 44.2291L28.8782 31.2292C28.4572 30.4093 28.6215 29.4848 29.2941 28.889L47.3136 12.9572C48.4815 11.913 48.0416 10.136 46.4286 9.4322L25.8429 0.469312C24.6175 -0.0762746 23.1281 0.225346 22.4306 1.17431Z" fill="#F2C43E"/>
</svg>
