<svg width="49" height="37" viewBox="0 0 49 37" fill="none" xmlns="http://www.w3.org/2000/svg">
<path d="M11.6751 0C15.0951 0 17.8959 1.05801 20.0776 3.17402C22.2593 5.29003 23.3502 8.10131 23.3502 11.6078C23.3502 13.1797 23.1438 14.7516 22.731 16.3235C22.3183 17.8954 21.3749 20.2835 19.9007 23.4877L13.7094 37H1.32671L5.7491 21.674C3.92118 20.7672 2.50602 19.4673 1.50361 17.7745C0.501203 16.0212 0 13.9657 0 11.6078C0 8.10131 1.09085 5.29003 3.27256 3.17402C5.45427 1.05801 8.25511 0 11.6751 0ZM37.3249 0C40.7449 0 43.5457 1.05801 45.7274 3.17402C47.9092 5.29003 49 8.10131 49 11.6078C49 13.1797 48.7936 14.7516 48.3809 16.3235C47.9681 17.8954 47.0247 20.2835 45.5505 23.4877L39.3592 37H26.9765L31.3989 21.674C29.571 20.7672 28.1558 19.4673 27.1534 17.7745C26.151 16.0212 25.6498 13.9657 25.6498 11.6078C25.6498 8.10131 26.7407 5.29003 28.9224 3.17402C31.1041 1.05801 33.9049 0 37.3249 0Z" fill="#E8ACB9"/>
</svg>
