<svg width="119" height="89" viewBox="0 0 119 89" fill="none" xmlns="http://www.w3.org/2000/svg">
<path d="M28.3538 0C36.6594 0 43.4615 2.54494 48.7599 7.63481C54.0584 12.7247 56.7076 19.4869 56.7076 27.9216C56.7076 31.7026 56.2064 35.4837 55.204 39.2647C54.2016 43.0458 51.9104 48.79 48.3303 56.4975L33.2942 89H3.22202L13.9621 52.1348C9.52286 49.9534 6.08604 46.8268 3.65162 42.7549C1.21721 38.5376 0 33.5931 0 27.9216C0 19.4869 2.64922 12.7247 7.94765 7.63481C13.2461 2.54494 20.0481 0 28.3538 0ZM90.6462 0C98.9519 0 105.754 2.54494 111.052 7.63481C116.351 12.7247 119 19.4869 119 27.9216C119 31.7026 118.499 35.4837 117.496 39.2647C116.494 43.0458 114.203 48.79 110.623 56.4975L95.5866 89H65.5144L76.2545 52.1348C71.8153 49.9534 68.3785 46.8268 65.944 42.7549C63.5096 38.5376 62.2924 33.5931 62.2924 27.9216C62.2924 19.4869 64.9416 12.7247 70.2401 7.63481C75.5385 2.54494 82.3406 0 90.6462 0Z" fill="#E8ACB9"/>
</svg>
