<svg width="70" height="70" viewBox="0 0 70 70" fill="none" xmlns="http://www.w3.org/2000/svg">
<path d="M41.9263 1.53449L43.9753 22.8213C44.0311 23.3746 44.5595 23.724 45.0892 23.5966L65.5994 17.5163C66.4869 17.2706 67.1136 18.3499 66.473 19.0063L51.119 33.9117C50.7222 34.297 50.7635 34.9504 51.23 35.2567L68.766 47.5179C69.5085 48.0348 69.062 49.2305 68.1563 49.1329L46.9149 46.4183C46.381 46.3406 45.8745 46.7781 45.9254 47.3647L47.2828 68.7213C47.352 69.6513 46.1399 70.0202 45.6412 69.2321L34.5389 50.9217C34.2683 50.4395 33.601 50.3424 33.2042 50.7276L17.346 65.1168C16.6769 65.735 15.6201 65.0361 15.9179 64.1595L23.3027 44.0744C23.4804 43.5551 23.1528 42.9963 22.6238 42.8853L1.48921 39.4367C0.588304 39.3056 0.467561 38.0274 1.36482 37.7149L21.7003 30.9619C22.2348 30.8011 22.4605 30.1865 22.1899 29.7042L11.6846 11.0377C11.2241 10.2212 12.1656 9.36998 12.9464 9.85834L30.8749 21.5292C31.3414 21.8356 31.9523 21.6178 32.1634 21.1033L40.2246 1.28699C40.5892 0.420054 41.8572 0.604466 41.9263 1.53449Z" fill="#EAADB9"/>
</svg>
